<svg width="1024" height="1024" viewBox="0 0 1024 1024" fill="none" xmlns="http://www.w3.org/2000/svg" role="img" aria-labelledby="title">
  <title id="title">BuddyStudy pixel reading buddy mark</title>
  <rect width="1024" height="1024" rx="224" fill="#EFF0F3"/>
  <g shape-rendering="crispEdges">
    <path fill="#0E0F11" d="M680 484h140v56H652v-28h28zM652 540h224v112H652zM708 652h140v56H708z"/>
    <path fill="#8B8F90" d="M708 512h84v28h-84zM680 568h140v84H680z"/>
    <path fill="#CFD0D0" d="M792 540h56v84h-56z"/>
    <path fill="#0E0F11" d="M260 176h140v56H232v-56zM232 232h196v168H232zM260 400h84v84h-84zM624 176h140v56H596v-56zM596 232h196v168H596zM680 400h84v84h-84z"/>
    <path fill="#8B8F90" d="M288 232h84v140h-84zM652 232h84v140h-84z"/>
    <path fill="#CFD0D0" d="M316 260h56v84h-56zM652 260h56v84h-56z"/>
    <path fill="#0E0F11" d="M344 260h336v56H344zM288 316h448v56H288zM260 372h504v168H260zM288 540h448v84H288z"/>
    <path fill="#8B8F90" d="M344 316h336v56H344zM316 372h392v112H316zM344 484h336v84H344z"/>
    <path fill="#F4F5F5" d="M288 484h140v84H288zM596 484h140v84H596zM400 540h224v56H400z"/>
    <path fill="#0E0F11" d="M400 400h28v56h-28zM596 400h28v56h-28z"/>
    <path fill="#F4F5F5" d="M428 400h28v28h-28zM624 400h28v28h-28z"/>
    <path fill="#0E0F11" d="M484 484h56v28h-56zM456 512h28v28h-28zM540 512h28v28h-28z"/>
    <path fill="#E4BEC4" d="M288 512h56v56h-56zM680 512h56v56h-56z"/>
    <path fill="#0E0F11" d="M344 596h336v168H344zM316 736h112v84H316zM596 736h112v84H596zM316 820h112v28H316zM596 820h112v28H596z"/>
    <path fill="#606365" d="M372 624h140v140H372zM540 624h140v140H540z"/>
    <path fill="#35393A" d="M484 596h56v196h-56z"/>
    <path fill="#8C9091" d="M400 652h84v28h-84zM568 652h84v28h-84zM400 708h84v28h-84zM568 708h84v28h-84zM344 764h56v28h-56zM624 764h56v28h-56z"/>
    <path fill="#606365" d="M288 624h56v84h-56zM680 624h56v84h-56z"/>
    <path fill="#0E0F11" d="M260 652h84v28h-84zM680 652h84v28h-84z"/>
  </g>
</svg>
